<?xml version="1.0" standalone="no"?><!DOCTYPE svg PUBLIC "-//W3C//DTD SVG 1.1//EN" "http://www.w3.org/Graphics/SVG/1.1/DTD/svg11.dtd"><svg t="1752315433475" class="icon" viewBox="0 0 1024 1024" version="1.1" xmlns="http://www.w3.org/2000/svg" p-id="9365" xmlns:xlink="http://www.w3.org/1999/xlink" width="200" height="200"><path d="M508.8 846.848a375.68 375.68 0 0 0 264.896-109.056 371.328 371.328 0 0 0 109.696-263.36 371.392 371.392 0 0 0-109.696-263.36A375.68 375.68 0 0 0 508.8 102.016a375.68 375.68 0 0 0-264.832 109.056 371.392 371.392 0 0 0-109.696 263.36c0 98.816 39.424 193.536 109.696 263.36a375.68 375.68 0 0 0 264.832 109.056z" fill="#FFD21E" p-id="9366"></path><path d="M883.52 474.304a371.392 371.392 0 0 0-109.696-263.36 375.68 375.68 0 0 0-264.896-109.056 375.68 375.68 0 0 0-264.832 109.056 371.392 371.392 0 0 0-109.76 263.36c0 98.752 39.488 193.536 109.76 263.36a375.68 375.68 0 0 0 264.832 109.056 375.68 375.68 0 0 0 264.896-109.056 371.328 371.328 0 0 0 109.696-263.36z m-792.32 0a413.248 413.248 0 0 1 122.368-293.632A417.856 417.856 0 0 1 508.928 59.008a419.776 419.776 0 0 1 295.36 121.6 413.248 413.248 0 0 1 0 587.328A418.88 418.88 0 0 1 508.928 889.6c-110.72 0-216.96-43.712-295.36-121.6A414.08 414.08 0 0 1 91.264 474.24z" fill="#FF9D0B" p-id="9367"></path><path d="M630.528 373.44c13.824 4.672 19.2 32.768 33.152 25.472a53.76 53.76 0 0 0 28.352-52.48 53.44 53.44 0 0 0-37.888-46.08 54.208 54.208 0 0 0-57.344 17.152 53.44 53.44 0 0 0-6.016 59.2c6.592 12.352 27.52-7.68 39.872-3.392l-0.128 0.128z m-253.824 0c-13.76 4.672-19.264 32.768-33.088 25.472a53.76 53.76 0 0 1-28.352-52.48 53.44 53.44 0 0 1 37.824-46.08 54.208 54.208 0 0 1 57.408 17.152 53.44 53.44 0 0 1 6.016 59.2c-6.592 12.352-27.648-7.68-39.936-3.392l0.128 0.128z" fill="#3A3B45" p-id="9368"></path><path d="M506.112 630.464c105.984 0 140.16-93.888 140.16-142.08 0-25.088-16.896-17.152-44.096-3.84-25.088 12.288-58.88 29.312-95.936 29.312-77.44 0-140.16-73.728-140.16-25.472 0 48.192 34.112 142.08 140.16 142.08h-0.128z" fill="#FF323D" p-id="9369"></path><path d="M424.96 606.016a93.312 93.312 0 0 1 57.152-48.128c4.288-1.28 8.704 6.08 13.312 13.696 4.352 7.296 8.896 14.72 13.44 14.72 4.8 0 9.6-7.296 14.272-14.528 4.864-7.488 9.6-14.72 14.272-13.376 23.104 7.296 42.496 23.36 53.888 44.672 40.192-31.488 54.976-82.944 54.976-114.624 0-25.088-16.96-17.152-44.16-3.84l-1.472 0.704c-24.896 12.352-58.112 28.608-94.528 28.608-36.416 0-69.504-16.256-94.528-28.608-28.032-13.824-45.568-22.528-45.568 3.136 0 32.64 15.744 86.4 58.944 117.568z" fill="#3A3B45" p-id="9370"></path><path d="M762.176 423.68a35.136 35.136 0 0 0 35.008-34.816 34.688 34.688 0 0 0-35.008-34.88 35.2 35.2 0 0 0-35.072 34.88 34.752 34.752 0 0 0 35.008 34.816z m-501.248 0a35.136 35.136 0 0 0 35.008-34.816 34.752 34.752 0 0 0-35.008-34.88 35.136 35.136 0 0 0-35.008 34.88 34.752 34.752 0 0 0 35.008 34.816zM188.8 541.568a56.064 56.064 0 0 0-43.84 20.032 63.744 63.744 0 0 0-14.336 40.32 76.928 76.928 0 0 0-20.928-3.2 57.152 57.152 0 0 0-42.496 17.728 62.016 62.016 0 0 0-8.576 75.072 56.768 56.768 0 0 0-19.328 30.208c-2.56 9.6-5.12 30.016 8.64 50.816a55.744 55.744 0 0 0-3.968 53.76c10.944 24.896 38.4 44.416 91.84 65.408 33.088 13.056 63.488 21.44 63.68 21.568 38.4 10.56 77.952 16.32 117.76 17.152 63.232 0 108.352-19.328 134.4-57.28 41.792-60.992 35.84-116.8-18.368-170.624-29.888-29.76-49.792-73.6-53.888-83.264-8.448-28.48-30.592-60.224-67.392-60.224a61.696 61.696 0 0 0-49.6 26.368 141.248 141.248 0 0 0-30.784-30.208 80.064 80.064 0 0 0-42.816-13.632z m0 42.88c5.504 0 12.288 2.368 19.648 6.976 23.04 14.528 67.328 90.304 83.648 119.808a26.24 26.24 0 0 0 23.04 14.08c16.704 0 29.632-16.448 1.6-37.376-42.24-31.36-27.52-82.688-7.296-85.824a11.008 11.008 0 0 1 2.56-0.192c18.368 0 26.432 31.36 26.432 31.36s23.68 59.2 64.448 99.712c40.64 40.384 42.816 72.896 13.12 116.032-20.224 29.44-58.88 38.4-98.688 38.4-41.088 0-83.328-9.6-106.944-15.68-1.216-0.32-144.96-40.704-126.72-75.008 3.008-5.76 8.064-8.128 14.4-8.128 25.6 0 72.192 37.952 92.352 37.952 4.48 0 7.552-1.856 8.96-6.4 8.512-30.592-129.984-43.456-118.4-87.616 2.24-7.808 7.68-10.88 15.552-10.88 33.92 0 109.952 59.2 125.952 59.2 1.152 0 2.112-0.32 2.56-1.024 8-12.864 3.584-21.888-52.8-55.744-56.192-33.92-95.744-54.272-73.28-78.592 2.56-2.752 6.208-4.032 10.752-4.032 34.176 0 114.88 73.088 114.88 73.088s21.76 22.464 35.072 22.464a7.808 7.808 0 0 0 7.296-4.032c9.28-15.68-86.848-88.128-92.224-118.016-3.712-20.352 2.56-30.528 14.08-30.528z" fill="#FF9D0B" p-id="9371"></path><path d="M416.064 848.64c29.632-43.264 27.52-75.776-13.12-116.16-40.768-40.448-64.448-99.712-64.448-99.712s-8.832-34.24-28.992-31.04c-20.16 3.2-34.944 54.4 7.296 85.824 42.176 31.36-8.384 52.736-24.704 23.296-16.128-29.504-60.544-105.28-83.648-119.872-22.912-14.464-39.04-6.4-33.728 23.616 5.44 29.888 101.696 102.336 92.288 117.888-9.408 15.744-42.368-18.368-42.368-18.368S121.472 620.8 98.944 645.12c-22.4 24.32 17.152 44.672 73.344 78.528 56.32 33.92 60.8 42.88 52.8 55.744-8.064 12.864-132.352-91.392-144-47.168-11.648 44.096 126.848 56.832 118.336 87.36-8.64 30.592-97.664-57.6-115.776-23.36-18.304 34.432 125.568 74.88 126.72 75.136 46.4 12.032 164.48 37.44 205.696-22.72z" fill="#FFD21E" p-id="9372"></path><path d="M834.368 541.44c17.408 0 33.088 7.104 43.84 20.096 9.28 11.392 14.336 25.6 14.336 40.32 6.848-2.048 13.888-3.136 21.056-3.2 16.64 0 31.744 6.272 42.432 17.792a62.08 62.08 0 0 1 8.64 75.008 56.704 56.704 0 0 1 19.2 30.208c2.56 9.6 5.12 30.016-8.64 50.816a55.68 55.68 0 0 1 3.968 53.76c-11.008 24.896-38.464 44.416-91.712 65.408-33.216 13.056-63.616 21.44-63.808 21.568-38.4 10.56-77.952 16.32-117.824 17.152-63.168 0-108.352-19.328-134.272-57.28-41.856-60.992-35.904-116.8 18.304-170.624 29.952-29.76 49.92-73.6 54.016-83.264 8.384-28.48 30.464-60.224 67.2-60.224a61.696 61.696 0 0 1 49.6 26.368c10.816-13.504 21.376-24.128 30.976-30.208 12.608-8.512 27.392-13.248 42.688-13.632z m0 42.88a39.232 39.232 0 0 0-19.648 7.04c-22.976 14.528-67.392 90.304-83.648 119.808a26.048 26.048 0 0 1-23.04 14.08c-16.64 0-29.632-16.448-1.536-37.376 42.176-31.36 27.392-82.688 7.232-85.76a16.768 16.768 0 0 0-2.56-0.256c-18.368 0-26.432 31.36-26.432 31.36s-23.68 59.2-64.384 99.712c-40.704 40.384-42.88 72.896-13.12 116.032 20.16 29.504 58.944 38.4 98.624 38.4 41.152 0 83.328-9.6 107.008-15.68 1.088-0.256 145.024-40.704 126.784-75.008-3.136-5.76-8.064-8.128-14.464-8.128-25.6 0-72.32 37.952-92.352 37.952-4.48 0-7.68-1.856-8.96-6.4-8.576-30.592 129.92-43.456 118.272-87.616-2.048-7.808-7.552-10.88-15.552-10.88-33.792 0-109.952 59.2-125.888 59.2-1.088 0-2.048-0.32-2.496-1.024-7.936-12.864-3.648-21.888 52.608-55.744 56.384-33.92 96-54.272 73.344-78.592-2.56-2.752-6.144-4.032-10.56-4.032-34.304 0-115.072 73.088-115.072 73.088s-21.76 22.464-34.88 22.464a8.064 8.064 0 0 1-7.36-4.032c-9.344-15.68 86.784-88.128 92.16-118.016 3.712-20.352-2.56-30.528-14.08-30.528z" fill="#FF9D0B" p-id="9373"></path><path d="M607.104 848.64c-29.632-43.264-27.52-75.776 13.184-116.16 40.64-40.448 64.32-99.712 64.32-99.712s8.832-34.24 29.12-31.04c20.032 3.2 34.816 54.4-7.296 85.824-42.24 31.36 8.32 52.736 24.512 23.296 16.32-29.504 60.736-105.28 83.712-119.872 22.912-14.464 39.232-6.4 33.728 23.616-5.44 29.888-101.568 102.336-92.16 117.888 9.216 15.744 42.24-18.368 42.24-18.368S901.696 620.8 924.16 645.12c22.4 24.32-17.024 44.672-73.344 78.528-56.32 33.92-60.672 42.88-52.8 55.744 8.064 12.864 132.352-91.392 144-47.168 11.648 44.096-126.72 56.832-118.208 87.36 8.576 30.592 97.536-57.6 115.776-23.36 18.176 34.432-125.632 74.88-126.784 75.136-46.464 12.032-164.48 37.44-205.696-22.72z" fill="#FFD21E" p-id="9374"></path></svg>