<?xml version="1.0" standalone="no"?><!DOCTYPE svg PUBLIC "-//W3C//DTD SVG 1.1//EN" "http://www.w3.org/Graphics/SVG/1.1/DTD/svg11.dtd"><svg t="1752316187795" class="icon" viewBox="0 0 1024 1024" version="1.1" xmlns="http://www.w3.org/2000/svg" p-id="13072" xmlns:xlink="http://www.w3.org/1999/xlink" width="200" height="200"><path d="M317.184 522.656a16.48 16.48 0 0 0-8.544 5.856 16.256 16.256 0 0 0-2.976 10.336c0 6.496 1.504 10.848 4.992 13.184 3.328 2.304 8.352 3.488 15.2 3.488a27.52 27.52 0 0 0 11.136-2.528c3.84-1.664 7.52-4.192 10.528-7.008v-28.16a206.912 206.912 0 0 0-17.376 1.824c-4.48 0.48-8.832 1.504-12.96 2.976zM512 0L0 512l512 512 512-512z m0 825.824c-173.312 0-313.824-140.512-313.824-313.824S338.688 198.176 512 198.016c173.312 0.16 313.824 140.672 313.824 313.984S685.312 825.824 512 825.824z m0-596.32c-155.808 0-282.496 126.496-282.496 282.496 0 155.808 126.688 282.336 282.496 282.336S794.496 667.84 794.496 512c0-156-126.496-282.496-282.496-282.656z m-122.144 351.648H347.52v-14.336l-7.84 6.656a57.376 57.376 0 0 1-20.352 10.016 69.024 69.024 0 0 1-14.976 1.504 40.96 40.96 0 0 1-29.824-12.16c-8.032-8.192-11.872-18.336-11.872-30.688 0-10.144 2.016-18.176 6.016-24.48 4.32-6.368 10.144-11.52 17.312-14.848 8.672-3.84 18.016-6.496 27.52-7.68 10.656-1.312 21.984-2.464 34.304-3.328v-0.64c0-7.52-2.816-12.672-8.48-15.52-5.504-2.976-13.664-4.32-24.672-4.32-4.992 0-10.848 0.8-17.504 2.656s-13.184 4.352-19.488 7.008h-3.68v-32.8a172.8 172.8 0 0 1 20.32-4.352c9.344-1.664 18.848-2.464 28.32-2.464 23.52 0 40.544 3.84 51.2 11.648 10.656 7.84 16 19.84 16 35.84v92.512z m137.472-6.976a138.112 138.112 0 0 0-8.672 3.68c-2.976 1.152-6.304 2.528-9.632 3.328-4 1.024-8.032 1.824-11.68 2.688-3.488 0.48-8.32 0.8-14.336 0.8-11.136 0-21.504-1.312-30.816-4.192a67.232 67.232 0 0 1-24.352-13.152 60.672 60.672 0 0 1-15.84-22.176 79.68 79.68 0 0 1-5.792-31.488 78.112 78.112 0 0 1 6.304-33.312c3.84-8.672 9.504-16.352 16.672-22.528 7.008-5.792 15.136-9.984 23.808-12.448 9.504-2.848 19.168-4 28.832-4 15.84 0 31.328 3.68 45.312 10.848v36.48h-5.472c-2.016-1.824-4-3.68-6.368-5.344a49.504 49.504 0 0 0-7.968-5.344 44.16 44.16 0 0 0-23.328-6.016c-10.848 0-19.328 3.68-25.184 11.168-6.016 7.68-8.992 17.664-8.992 30.496 0 13.664 3.168 23.84 9.504 30.496 6.496 6.656 14.816 9.984 25.312 9.984 4.704 0 9.504-0.48 14.048-1.824 6.656-1.824 12.64-4.992 17.792-9.472 2.016-1.664 3.68-3.488 5.216-4.704h5.472v35.84z m184.832 7.328v-68.192c0-6.656 0-12.32-0.288-16.8 0-3.84-0.864-7.84-2.176-11.36a11.648 11.648 0 0 0-5.504-6.304 26.368 26.368 0 0 0-20.512 0 89.92 89.92 0 0 0-10.336 5.984v96.672h-42.496v-68.192c0-6.656 0-12.16-0.352-16.8a37.568 37.568 0 0 0-2.144-11.36 12.16 12.16 0 0 0-5.856-6.304c-2.528-1.504-6.176-2.016-10.656-2.016a23.648 23.648 0 0 0-10.144 2.304 102.176 102.176 0 0 0-9.856 5.856v96.512h-42.336v-136.032h42.336v15.2c6.176-5.344 12.672-10.016 19.68-13.824a44.16 44.16 0 0 1 20.64-5.152c7.68-0.16 15.36 1.952 21.856 5.984 6.496 4.352 11.52 10.496 14.496 17.664 8.16-7.52 15.84-13.312 23.168-17.504 7.168-4 14.496-6.144 21.856-6.144 5.792 0 11.488 0.992 16.992 3.168 4.832 2.016 9.344 4.992 12.832 8.992 3.84 4.48 6.656 9.824 8.48 15.488 1.824 6.176 2.848 13.984 2.848 23.68v88.48z" p-id="13073"></path></svg>